<?xml version="1.0" encoding="UTF-8"?>
<svg viewBox="0 0 228.89 228.89008" xmlns="http://www.w3.org/2000/svg">
 <g transform="translate(-480.5 -264.38)" stroke="#000" stroke-linecap="round" stroke-linejoin="round">
  <path d="m640.82 473.13c10.282 4.272 27.785 4.7908 23.933 16.41-12.6 4.6014-23.553 1.7468-35.068-0.15696-6.3924-1.0568-11.822 4.3011-20.075-0.8532l0.32089-15.122 30.889-0.27736z" fill="#fff" stroke-width="2.5"/>
  <path d="m552.91 470.42c-10.833 2.5739-28.193 0.28905-26.248 12.374 11.703 6.5558 22.971 5.4882 34.643 5.4492 6.4792-0.02164 10.983 6.135 19.954 2.366l2.0999-14.979-30.448-5.2101z" fill="#fff" stroke-width="2.5"/>
  <path d="m550.45 429.27-9.8192 44.334c12.005 7.0904 30.766 7.1788 47.255 4.3543l8.5918-30.084 5.5233 31.272c8.4293 1.9608 37.839 2.4676 50.323-3.5626l-14.729-40.772-87.145-5.5418z" fill="#fff" stroke-width="2.5"/>
  <path d="m545.88 424.09s1.0341-73.291 55-71c53 2.25 45 76 45 76 4.6667 36.14-101.67 18.613-100-5z" fill="#fff" stroke-width="2.5"/>
  <path d="m577.88 369.09s-17.966-16.291 23-16c40.985 0.29114 22 14 22 14-21.333 29.14-24.667 25.613-45 2z" fill="#fff" stroke-width="2.5"/>
  <path d="m568.88 358.09 19 34 14-17-24-19-9 2z" fill="#fff" stroke-width="2.5"/>
  <path d="m633.88 358.09-19 34-14-17 24-19 9 2z" fill="#fff" stroke-width="2.5"/>
  <path d="m536.18 313.48 23.725 5.2623" fill="#fff" stroke-width="2.5"/>
  <path d="m548.78 296.71 17.467 11.431" fill="#fff" stroke-width="2.5"/>
  <path d="m563.51 284.42 15.162 15.809" fill="#fff" stroke-width="2.5"/>
  <path d="m581.82 272.04 3.6329 21.697" fill="#fff" stroke-width="2.5"/>
  <path d="m601.02 265.63-1.2136 25.512" fill="#fff" stroke-width="2.5"/>
  <path d="m619.7 267.55-5.6875 19.63" fill="#fff" stroke-width="2.5"/>
  <path d="m637.83 272.02-11.948 17.797" fill="#fff" stroke-width="2.5"/>
  <path transform="matrix(.3573 -.22757 .25266 .39669 362.82 335.46)" d="m598.04 244.74c0 47.963-48.16 86.844-107.57 86.844s-107.57-38.881-107.57-86.844 48.16-86.844 107.57-86.844 107.57 38.881 107.57 86.844z" fill="#fff" stroke-width="5.6009"/>
  <path transform="matrix(.84345 -.53721 .53721 .84345 -56.561 354.02)" d="m573 311.59c0 9.1127-7.1634 16.5-16 16.5s-16-7.3873-16-16.5 7.1634-16.5 16-16.5 16 7.3873 16 16.5z" fill="#fff" stroke-width="2.5"/>
  <path transform="matrix(.84345 -.53721 .53721 .84345 -56.561 354.02)" d="m602 316.09c0 6.0751-4.0294 11-9 11s-9-4.9249-9-11 4.0294-11 9-11 9 4.9249 9 11z" fill="#fff" stroke-width="2.5"/>
  <path transform="matrix(.84345 -.53721 .53721 .84345 -51.898 347.28)" d="m565 317.09c0 3.3137-2.6863 6-6 6s-6-2.6863-6-6 2.6863-6 6-6 6 2.6863 6 6z" fill="#fff" stroke-width="2.5"/>
  <path transform="matrix(.84345 -.53721 .53721 .84345 -62.937 354.5)" d="m598 320.09c0 2.2091-1.7909 4-4 4s-4-1.7909-4-4 1.7909-4 4-4 4 1.7909 4 4z" fill="#fff" stroke-width="2.5"/>
  <path transform="matrix(.84345 -.53721 .53721 .84345 -34.898 374)" d="m565 317.09c0 3.3137-2.6863 6-6 6s-6-2.6863-6-6 2.6863-6 6-6 6 2.6863 6 6z" fill="#fff" stroke-width="2.5"/>
  <g transform="matrix(1.2289 -.23359 .24052 1.1936 -315.7 96.882)" fill="#fff">
   <path transform="matrix(.7 0 0 .79592 214.03 65.149)" d="m660.34 355.32c0 8.3039-6.869 15.036-15.342 15.036s-15.342-6.7317-15.342-15.036 6.869-15.036 15.342-15.036 15.342 6.7317 15.342 15.036z" stroke-width="2.714"/>
   <path d="m654.48 338s-38.246 18.947-33.177 36.16c4.978 16.905 42.964-4.4556 42.964-4.4556 19.231-7.636 2.4397-38.249-9.7871-31.705z" stroke-width="2.0258"/>
  </g>
  <g transform="matrix(.58213 1.0282 -.91909 .65124 512.79 -557.16)" fill="#fff">
   <path transform="matrix(.7 0 0 .79592 233.16 33.299)" d="m660.34 355.32c0 8.3039-6.869 15.036-15.342 15.036s-15.342-6.7317-15.342-15.036 6.869-15.036 15.342-15.036 15.342 6.7317 15.342 15.036z" stroke-width="2.9107"/>
   <path d="m687.47 301.84s40.413-13.731 49.033 2.0067c8.466 15.456-33.474 27.3-33.474 27.3-18.98 8.2383-28.824-25.261-15.559-29.307z" stroke-width="2.1726"/>
  </g>
  <g transform="translate(249.92 -60.93)" stroke-width="2.5">
   <path d="m309.92 377.35c0.16434 0.77209 0.38786 1.5225 0.67664 2.2834l0.84264 2.2204c3.1122 8.2008 12.387 12.234 20.796 9.0429l3.7945-1.44c8.4086-3.191 12.673-12.362 9.5604-20.563l-0.84264-2.2204c-0.28878-0.76094-0.61942-1.4707-1.0087-2.1574-0.91368-3.3276-10.606-1.7527-16.108 0.24197-5.7989 2.1021-19.569 9.3796-17.71 12.592z" fill="#f9f9f9" fill-opacity=".2164"/>
   <path transform="matrix(.93494,-.35481,.35481,.93494,0,0)" d="m149.75 461.66h5.6408v6.189h-5.6408z" fill="#fff"/>
   <path d="m382.35 349.86c0.38927 0.68673 0.71988 1.3965 1.0086 2.1574l0.84264 2.2204c3.1122 8.2008-1.1518 17.372-9.5604 20.563l-3.7945 1.44c-8.4086 3.191-17.683-0.84209-20.796-9.0429l-0.84264-2.2204c-0.28877-0.76094-0.51226-1.5114-0.67663-2.2834-1.524-3.096 6.7726-8.3477 12.213-10.506 5.7335-2.2744 20.865-5.9646 21.605-2.3281z" fill="#f9f9f9" fill-opacity=".2164"/>
   <path transform="matrix(-.93494,.35481,.35481,.93494,0,0)" d="m-239.47 461.66h5.6408v6.189h-5.6408z" fill="#fff"/>
   <path d="m343.61 363.39c1.8682 0.61701 3.4315 0.43077 4.2849-1.6261l1.3419 3.5361c-1.8882-0.66983-3.2085 0.15684-4.2849 1.6261z" fill="none"/>
  </g>
 </g>
</svg>
